<svg xmlns="http://www.w3.org/2000/svg" xmlns:xlink="http://www.w3.org/1999/xlink" width="21" height="24" viewBox="0 0 21 24">
    <defs>
        <path id="a" d="M0 .17v11.466h19.921V.17z"/>
    </defs>
    <g fill="none" fill-rule="evenodd">
        <path fill="#FFF" d="M9.96 13.423a6.72 6.72 0 0 0 6.713-6.712A6.72 6.72 0 0 0 9.96.001a6.72 6.72 0 0 0-6.712 6.71 6.72 6.72 0 0 0 6.712 6.712"/>
        <g transform="translate(0 12.364)">
            <mask id="b" fill="#fff">
                <use xlink:href="#a"/>
            </mask>
            <path fill="#FFF" d="M16.674.17A8.866 8.866 0 0 1 9.96 3.242 8.866 8.866 0 0 1 3.248.17 9.912 9.912 0 0 0 0 7.51c0 5.502 19.922 5.502 19.922 0A9.912 9.912 0 0 0 16.674.17" mask="url(#b)"/>
        </g>
    </g>
</svg>
