<svg xmlns="http://www.w3.org/2000/svg" width="216" height="1024" viewBox="0 0 216 1024">
    <g fill="none" fill-rule="evenodd">
        <path fill="#F7F7F8" d="M0 0h216v1024H0z"/>
        <rect width="200" height="40" x="8" y="210" fill="#57535D" opacity=".05" rx="3"/>
        <path fill="#E2E0E4" d="M215 0h1v1026h-1z"/>
        <text fill="#211E26" font-family="NunitoSans-Bold, Nunito Sans" font-size="11" font-weight="bold" letter-spacing=".2">
            <tspan x="24" y="145">TABLE</tspan> <tspan x="59.045" y="145">S</tspan>
        </text>
        <path fill="#231F20" d="M190.414 33.035l3.328-3.328a.999.999 0 1 0-1.414-1.415l-5 5a1.034 1.034 0 0 0-.328.743c0 .372.211.683.511.855l4.782 4.782a.993.993 0 0 0 .707.293.999.999 0 0 0 .707-1.707l-3.223-3.223H198a1 1 0 1 0 0-2h-7.586z" opacity=".5"/>
        <text fill="#211E26" font-family="NunitoSans-Regular, Nunito Sans" font-size="14">
            <tspan x="56" y="193">Projects</tspan>  <tspan x="56" y="233" font-family="NunitoSans-Bold, Nunito Sans" font-weight="bold">Activities</tspan>   <tspan x="56" y="273">Tasks</tspan>  <tspan x="56" y="313">Issues</tspan>  <tspan x="56" y="353">Document Library</tspan>  <tspan x="56" y="393">Resources</tspan>  <tspan x="56" y="433">Time Cards</tspan>  <tspan x="56" y="473">New Cards</tspan>  <tspan x="56" y="513">Add table</tspan> 
        </text>
        <path fill="#FFF" d="M47 509c0 6.627-5.372 12-12 12-6.627 0-12-5.373-12-12s5.373-12 12-12c6.628 0 12 5.373 12 12"/>
        <path fill="#1B99FF" d="M40.63 508H36v-4.629a1 1 0 1 0-2 0V508h-4.63a1 1 0 1 0 0 2H34v4.629a1 1 0 1 0 2 0V510h4.63a1 1 0 1 0 0-2"/>
        <text fill="#211E26" font-family="QB_icons_table" font-size="22">
            <tspan x="24" y="188"></tspan> <tspan x="24" y="228"></tspan> <tspan x="24" y="268"></tspan> <tspan x="24" y="308"></tspan> <tspan x="24" y="348"></tspan> <tspan x="24" y="388"></tspan> <tspan x="24" y="428"></tspan> <tspan x="24" y="468"></tspan>
        </text>
    </g>
</svg>
