<svg xmlns="http://www.w3.org/2000/svg" xmlns:xlink="http://www.w3.org/1999/xlink" width="56" height="1024" viewBox="0 0 56 1024">
    <defs>
        <path id="a" d="M0 .156v10.51h18.024V.157z"/>
    </defs>
    <g fill="none" fill-rule="evenodd">
        <path fill="#94AF45" d="M0 0h56v1024H0z"/>
        <path fill="#FFF" d="M27.012 416.305c3.349 0 6.073-2.76 6.073-6.153 0-3.392-2.724-6.152-6.073-6.152s-6.073 2.76-6.073 6.152c0 3.393 2.724 6.153 6.073 6.153"/>
        <g transform="translate(18 415.333)">
            <mask id="b" fill="#fff">
                <use xlink:href="#a"/>
            </mask>
            <path fill="#FFF" d="M15.086.156c-1.475 1.722-3.647 2.816-6.074 2.816S4.414 1.878 2.938.156A9.14 9.14 0 0 0 0 6.885c0 5.043 18.025 5.043 18.025 0a9.14 9.14 0 0 0-2.94-6.73" mask="url(#b)"/>
        </g>
        <path fill="#FFF" d="M27 372.5a5.5 5.5 0 1 1 .001-11.001A5.5 5.5 0 0 1 27 372.5m10.957-6.465a.384.384 0 0 0-.256-.326l-1.664-.592a2.315 2.315 0 0 1-1.315-3.176l.757-1.593a.384.384 0 0 0-.05-.412 11 11 0 0 0-1.365-1.365.384.384 0 0 0-.412-.05l-1.593.757a2.315 2.315 0 0 1-3.176-1.315l-.592-1.664a.384.384 0 0 0-.326-.256c-.319-.027-.64-.043-.965-.043-.325 0-.646.016-.965.043a.384.384 0 0 0-.326.256l-.592 1.664a2.315 2.315 0 0 1-3.176 1.315l-1.593-.757a.384.384 0 0 0-.412.05 11 11 0 0 0-1.365 1.365.384.384 0 0 0-.05.412l.757 1.593a2.315 2.315 0 0 1-1.315 3.176l-1.664.592a.384.384 0 0 0-.256.326c-.027.319-.043.64-.043.965 0 .325.016.646.043.965a.384.384 0 0 0 .256.326l1.664.592a2.315 2.315 0 0 1 1.315 3.176l-.757 1.593a.384.384 0 0 0 .05.412 11 11 0 0 0 1.365 1.365.384.384 0 0 0 .412.05l1.593-.757a2.315 2.315 0 0 1 3.176 1.315l.592 1.664c.05.142.177.242.326.256.319.027.64.043.965.043.325 0 .646-.016.965-.043a.384.384 0 0 0 .326-.256l.592-1.664a2.315 2.315 0 0 1 3.176-1.315l1.593.757a.384.384 0 0 0 .412-.05 11 11 0 0 0 1.365-1.365.384.384 0 0 0 .05-.412l-.757-1.593a2.315 2.315 0 0 1 1.315-3.176l1.664-.592a.384.384 0 0 0 .256-.326c.027-.319.043-.64.043-.965 0-.325-.016-.646-.043-.965"/>
        <path stroke="#FFF" stroke-linecap="square" d="M12 332h32" opacity=".6"/>
        <path fill="#FFF" d="M27.54 296.854c-2.523.937-4.276 2.006-5.41 2.97.798.726 2.295.902 3.785.35 1.9-.705 3.064-2.322 2.603-3.612-.005-.014-.014-.029-.02-.044-.31.103-.63.215-.958.336m1.55 4.343c-4.824 1.79-8.789.736-8.956.27-.29-.808 1.557-3.5 7.072-5.547 5.516-2.047 8.594-1.289 8.916-.386.19.532-2.207 3.872-7.032 5.663m4.63-10.045c-2.833-6.098-4.306-8.414-8.936-8.318-1.65.035-1.253-1.195-2.51-.728-1.257.466-.178 1.148-1.464 2.202-3.607 2.961-3.275 5.7-1.602 12.229.705 2.75-1.7 2.884-.747 5.55.694 1.943 5.814 2.756 11.215.753 5.402-2.006 8.812-5.984 8.117-7.926-.952-2.666-2.878-1.195-4.072-3.762"/>
        <path stroke="#FFF" stroke-width="2" d="M34.2 196H19.8a1.8 1.8 0 0 1-1.8-1.8v-14.4a1.8 1.8 0 0 1 1.8-1.8h14.4c.993 0 1.8.807 1.8 1.8v14.4c0 .993-.807 1.8-1.8 1.8z"/>
        <path fill="#FFF" d="M18 182h18v-4H18z"/>
        <path stroke="#FFF" stroke-width="1.5" d="M18 186.188h18M18 191.188h18M27 186.188V196"/>
        <g fill="#FFF" fill-rule="nonzero">
            <path d="M24.556 252.333l4.888-3.055v-4.89L38 234H16l8.556 10.389z"/>
        </g>
        <path fill="#211E26" d="M0 0h56v68H0z" opacity=".1"/>
    </g>
</svg>
