<svg xmlns="http://www.w3.org/2000/svg" width="20" height="22" viewBox="0 0 20 22">
    <path fill="#FFF" fill-rule="evenodd" d="M9.54 14.854c-2.523.937-4.276 2.006-5.41 2.97.798.726 2.295.902 3.785.35 1.9-.705 3.064-2.322 2.603-3.612-.005-.014-.014-.029-.02-.044-.31.103-.63.215-.958.336m1.55 4.343c-4.824 1.79-8.789.736-8.956.27-.29-.808 1.557-3.5 7.072-5.547 5.516-2.047 8.594-1.289 8.916-.386.19.532-2.207 3.872-7.032 5.663m4.63-10.045C12.888 3.054 11.415.738 6.785.834 5.134.869 5.53-.361 4.274.106 3.017.572 4.096 1.254 2.81 2.308-.797 5.27-.465 8.008 1.208 14.537c.705 2.75-1.7 2.884-.747 5.55.694 1.943 5.814 2.756 11.215.753 5.402-2.006 8.812-5.984 8.117-7.926-.952-2.666-2.878-1.195-4.072-3.762"/>
</svg>
