<svg xmlns="http://www.w3.org/2000/svg" width="22" height="22" viewBox="0 0 22 22">
    <path fill="#FFF" fill-rule="evenodd" d="M11 16.5a5.5 5.5 0 1 1 .001-11.001A5.5 5.5 0 0 1 11 16.5m10.957-6.465a.384.384 0 0 0-.256-.326l-1.664-.592a2.315 2.315 0 0 1-1.315-3.176l.757-1.593a.384.384 0 0 0-.05-.412 11 11 0 0 0-1.365-1.365.384.384 0 0 0-.412-.05l-1.593.757a2.315 2.315 0 0 1-3.176-1.315L12.291.299a.384.384 0 0 0-.326-.256C11.646.016 11.325 0 11 0c-.325 0-.646.016-.965.043a.384.384 0 0 0-.326.256l-.592 1.664a2.315 2.315 0 0 1-3.176 1.315l-1.593-.757a.384.384 0 0 0-.412.05 11 11 0 0 0-1.365 1.365.384.384 0 0 0-.05.412l.757 1.593a2.315 2.315 0 0 1-1.315 3.176l-1.664.592a.384.384 0 0 0-.256.326C.016 10.354 0 10.675 0 11c0 .325.016.646.043.965a.384.384 0 0 0 .256.326l1.664.592a2.315 2.315 0 0 1 1.315 3.176l-.757 1.593a.384.384 0 0 0 .05.412 11 11 0 0 0 1.365 1.365.384.384 0 0 0 .412.05l1.593-.757a2.315 2.315 0 0 1 3.176 1.315l.592 1.664c.05.142.177.242.326.256.319.027.64.043.965.043.325 0 .646-.016.965-.043a.384.384 0 0 0 .326-.256l.592-1.664a2.315 2.315 0 0 1 3.176-1.315l1.593.757a.384.384 0 0 0 .412-.05 11 11 0 0 0 1.365-1.365.384.384 0 0 0 .05-.412l-.757-1.593a2.315 2.315 0 0 1 1.315-3.176l1.664-.592a.384.384 0 0 0 .256-.326c.027-.319.043-.64.043-.965 0-.325-.016-.646-.043-.965"/>
</svg>
